<svg width="512" height="512" viewBox="0 0 512 512" xmlns="http://www.w3.org/2000/svg" role="img" aria-labelledby="title desc">
  <title>NeuroBotanica emblem</title>
  <desc>Abstract DNA helix interwoven with botanical canopy.</desc>
  <defs>
    <linearGradient id="leaf" x1="0%" y1="0%" x2="0%" y2="100%">
      <stop offset="0%" stop-color="#3FA4AB" />
      <stop offset="100%" stop-color="#5BBF70" />
    </linearGradient>
    <linearGradient id="trunk" x1="0%" y1="0%" x2="0%" y2="100%">
      <stop offset="0%" stop-color="#B87939" />
      <stop offset="100%" stop-color="#6C3F1F" />
    </linearGradient>
  </defs>
  <circle cx="256" cy="256" r="238" stroke="#E5D8C2" stroke-width="8" fill="none" />
  <path d="M130 90 C210 120 210 392 130 422" stroke="url(#leaf)" stroke-width="18" fill="none" stroke-linecap="round" />
  <path d="M382 90 C302 120 302 392 382 422" stroke="url(#leaf)" stroke-width="18" fill="none" stroke-linecap="round" />
  <path d="M206 124 C256 172 256 340 206 388" stroke="url(#trunk)" stroke-width="14" fill="none" stroke-linecap="round" />
  <path d="M306 124 C256 172 256 340 306 388" stroke="url(#trunk)" stroke-width="14" fill="none" stroke-linecap="round" />
  <path d="M212 180 L300 332" stroke="#F3EBDC" stroke-width="8" stroke-linecap="round" />
  <path d="M300 180 L212 332" stroke="#F3EBDC" stroke-width="8" stroke-linecap="round" />
  <path d="M256 380 C232 420 198 450 166 470" stroke="#6C3F1F" stroke-width="10" stroke-linecap="round" />
  <path d="M256 380 C280 420 314 450 346 470" stroke="#6C3F1F" stroke-width="10" stroke-linecap="round" />
</svg>
