<?xml version="1.0" encoding="utf-8" standalone="no"?>
<!DOCTYPE svg PUBLIC "-//W3C//DTD SVG 1.1//EN"
  "http://www.w3.org/Graphics/SVG/1.1/DTD/svg11.dtd">
<svg xmlns:xlink="http://www.w3.org/1999/xlink" width="628.2pt" height="485.64pt" viewBox="0 0 628.2 485.64" xmlns="http://www.w3.org/2000/svg" version="1.1">
 <metadata>
  <rdf:RDF xmlns:dc="http://purl.org/dc/elements/1.1/" xmlns:cc="http://creativecommons.org/ns#" xmlns:rdf="http://www.w3.org/1999/02/22-rdf-syntax-ns#">
   <cc:Work>
    <dc:type rdf:resource="http://purl.org/dc/dcmitype/StillImage"/>
    <dc:date>2025-12-22T18:23:59.529622</dc:date>
    <dc:format>image/svg+xml</dc:format>
    <dc:creator>
     <cc:Agent>
      <dc:title>Matplotlib v3.10.8, https://matplotlib.org/</dc:title>
     </cc:Agent>
    </dc:creator>
   </cc:Work>
  </rdf:RDF>
 </metadata>
 <defs>
  <style type="text/css">*{stroke-linejoin: round; stroke-linecap: butt}</style>
 </defs>
 <g id="figure_1">
  <g id="patch_1">
   <path d="M 0 485.64 
L 628.2 485.64 
L 628.2 0 
L 0 0 
z
" style="fill: #ffffff"/>
  </g>
  <g id="axes_1">
   <g id="patch_2">
    <path d="M 56.304 148.572 
L 571.896 148.572 
L 571.896 73.1736 
L 56.304 73.1736 
z
" clip-path="url(#p247a24ce54)" style="fill: #ffffff; stroke: #000000; stroke-width: 1.5; stroke-linejoin: miter"/>
   </g>
   <g id="patch_3">
    <path d="M 56.304 242.82 
L 571.896 242.82 
L 571.896 167.4216 
L 56.304 167.4216 
z
" clip-path="url(#p247a24ce54)" style="fill: #ffffff; stroke: #000000; stroke-width: 1.5; stroke-linejoin: miter"/>
   </g>
   <g id="patch_4">
    <path d="M 56.304 337.068 
L 571.896 337.068 
L 571.896 261.6696 
L 56.304 261.6696 
z
" clip-path="url(#p247a24ce54)" style="fill: #ffffff; stroke: #000000; stroke-width: 1.5; stroke-linejoin: miter"/>
   </g>
   <g id="patch_5">
    <path d="M 56.304 431.316 
L 571.896 431.316 
L 571.896 355.9176 
L 56.304 355.9176 
z
" clip-path="url(#p247a24ce54)" style="fill: #ffffff; stroke: #000000; stroke-width: 1.5; stroke-linejoin: miter"/>
   </g>
   <g id="patch_6">
    <path d="M 314.1 154.568345 
Q 314.1 157.993474 314.1 159.965159 
" clip-path="url(#p247a24ce54)" style="fill: none; stroke: #000000; stroke-width: 1.3; stroke-linecap: round"/>
    <path d="M 316.5 155.165159 
L 314.1 159.965159 
L 311.7 155.165159 
z
" clip-path="url(#p247a24ce54)" style="stroke: #000000; stroke-width: 1.3; stroke-linecap: round"/>
   </g>
   <g id="patch_7">
    <path d="M 314.1 248.816345 
Q 314.1 252.241474 314.1 254.213159 
" clip-path="url(#p247a24ce54)" style="fill: none; stroke: #000000; stroke-width: 1.3; stroke-linecap: round"/>
    <path d="M 316.5 249.413159 
L 314.1 254.213159 
L 311.7 249.413159 
z
" clip-path="url(#p247a24ce54)" style="stroke: #000000; stroke-width: 1.3; stroke-linecap: round"/>
   </g>
   <g id="patch_8">
    <path d="M 314.1 343.064345 
Q 314.1 346.489474 314.1 348.461159 
" clip-path="url(#p247a24ce54)" style="fill: none; stroke: #000000; stroke-width: 1.3; stroke-linecap: round"/>
    <path d="M 316.5 343.661159 
L 314.1 348.461159 
L 311.7 343.661159 
z
" clip-path="url(#p247a24ce54)" style="stroke: #000000; stroke-width: 1.3; stroke-linecap: round"/>
   </g>
   <g id="patch_9">
    <path d="M 571.896 387.615566 
Q 571.896 252.244453 571.896 118.326785 
" clip-path="url(#p247a24ce54)" style="fill: none; stroke: #000000; stroke-width: 1.3; stroke-linecap: round"/>
    <path d="M 569.496 123.126785 
L 571.896 118.326785 
L 574.296 123.126785 
z
" clip-path="url(#p247a24ce54)" style="stroke: #000000; stroke-width: 1.3; stroke-linecap: round"/>
   </g>
   <g id="patch_10">
    <path d="M 565.894367 110.8728 
Q 535.067116 110.8728 505.69331 110.8728 
" clip-path="url(#p247a24ce54)" style="fill: none; stroke: #000000; stroke-width: 1.3; stroke-linecap: round"/>
    <path d="M 510.49331 113.2728 
L 505.69331 110.8728 
L 510.49331 108.4728 
z
" clip-path="url(#p247a24ce54)" style="stroke: #000000; stroke-width: 1.3; stroke-linecap: round"/>
   </g>
   <g id="text_1">
    <!-- Figure 8. Continuous Learning and Model Refinement -->
    <g transform="translate(117.965547 26.502769) scale(0.13 -0.13)">
     <defs>
      <path id="DejaVuSans-Bold-46" d="M 588 4666 
L 3834 4666 
L 3834 3756 
L 1791 3756 
L 1791 2888 
L 3713 2888 
L 3713 1978 
L 1791 1978 
L 1791 0 
L 588 0 
L 588 4666 
z
" transform="scale(0.015625)"/>
      <path id="DejaVuSans-Bold-69" d="M 538 3500 
L 1656 3500 
L 1656 0 
L 538 0 
L 538 3500 
z
M 538 4863 
L 1656 4863 
L 1656 3950 
L 538 3950 
L 538 4863 
z
" transform="scale(0.015625)"/>
      <path id="DejaVuSans-Bold-67" d="M 2919 594 
Q 2688 288 2409 144 
Q 2131 0 1766 0 
Q 1125 0 706 504 
Q 288 1009 288 1791 
Q 288 2575 706 3076 
Q 1125 3578 1766 3578 
Q 2131 3578 2409 3434 
Q 2688 3291 2919 2981 
L 2919 3500 
L 4044 3500 
L 4044 353 
Q 4044 -491 3511 -936 
Q 2978 -1381 1966 -1381 
Q 1638 -1381 1331 -1331 
Q 1025 -1281 716 -1178 
L 716 -306 
Q 1009 -475 1290 -558 
Q 1572 -641 1856 -641 
Q 2406 -641 2662 -400 
Q 2919 -159 2919 353 
L 2919 594 
z
M 2181 2772 
Q 1834 2772 1640 2515 
Q 1447 2259 1447 1791 
Q 1447 1309 1634 1061 
Q 1822 813 2181 813 
Q 2531 813 2725 1069 
Q 2919 1325 2919 1791 
Q 2919 2259 2725 2515 
Q 2531 2772 2181 2772 
z
" transform="scale(0.015625)"/>
      <path id="DejaVuSans-Bold-75" d="M 500 1363 
L 500 3500 
L 1625 3500 
L 1625 3150 
Q 1625 2866 1622 2436 
Q 1619 2006 1619 1863 
Q 1619 1441 1641 1255 
Q 1663 1069 1716 984 
Q 1784 875 1895 815 
Q 2006 756 2150 756 
Q 2500 756 2700 1025 
Q 2900 1294 2900 1772 
L 2900 3500 
L 4019 3500 
L 4019 0 
L 2900 0 
L 2900 506 
Q 2647 200 2364 54 
Q 2081 -91 1741 -91 
Q 1134 -91 817 281 
Q 500 653 500 1363 
z
" transform="scale(0.015625)"/>
      <path id="DejaVuSans-Bold-72" d="M 3138 2547 
Q 2991 2616 2845 2648 
Q 2700 2681 2553 2681 
Q 2122 2681 1889 2404 
Q 1656 2128 1656 1613 
L 1656 0 
L 538 0 
L 538 3500 
L 1656 3500 
L 1656 2925 
Q 1872 3269 2151 3426 
Q 2431 3584 2822 3584 
Q 2878 3584 2943 3579 
Q 3009 3575 3134 3559 
L 3138 2547 
z
" transform="scale(0.015625)"/>
      <path id="DejaVuSans-Bold-65" d="M 4031 1759 
L 4031 1441 
L 1416 1441 
Q 1456 1047 1700 850 
Q 1944 653 2381 653 
Q 2734 653 3104 758 
Q 3475 863 3866 1075 
L 3866 213 
Q 3469 63 3072 -14 
Q 2675 -91 2278 -91 
Q 1328 -91 801 392 
Q 275 875 275 1747 
Q 275 2603 792 3093 
Q 1309 3584 2216 3584 
Q 3041 3584 3536 3087 
Q 4031 2591 4031 1759 
z
M 2881 2131 
Q 2881 2450 2695 2645 
Q 2509 2841 2209 2841 
Q 1884 2841 1681 2658 
Q 1478 2475 1428 2131 
L 2881 2131 
z
" transform="scale(0.015625)"/>
      <path id="DejaVuSans-Bold-20" transform="scale(0.015625)"/>
      <path id="DejaVuSans-Bold-38" d="M 2228 2088 
Q 1891 2088 1709 1903 
Q 1528 1719 1528 1375 
Q 1528 1031 1709 848 
Q 1891 666 2228 666 
Q 2563 666 2741 848 
Q 2919 1031 2919 1375 
Q 2919 1722 2741 1905 
Q 2563 2088 2228 2088 
z
M 1350 2484 
Q 925 2613 709 2878 
Q 494 3144 494 3541 
Q 494 4131 934 4440 
Q 1375 4750 2228 4750 
Q 3075 4750 3515 4442 
Q 3956 4134 3956 3541 
Q 3956 3144 3739 2878 
Q 3522 2613 3097 2484 
Q 3572 2353 3814 2058 
Q 4056 1763 4056 1313 
Q 4056 619 3595 264 
Q 3134 -91 2228 -91 
Q 1319 -91 855 264 
Q 391 619 391 1313 
Q 391 1763 633 2058 
Q 875 2353 1350 2484 
z
M 1631 3419 
Q 1631 3141 1786 2991 
Q 1941 2841 2228 2841 
Q 2509 2841 2662 2991 
Q 2816 3141 2816 3419 
Q 2816 3697 2662 3845 
Q 2509 3994 2228 3994 
Q 1941 3994 1786 3844 
Q 1631 3694 1631 3419 
z
" transform="scale(0.015625)"/>
      <path id="DejaVuSans-Bold-2e" d="M 653 1209 
L 1778 1209 
L 1778 0 
L 653 0 
L 653 1209 
z
" transform="scale(0.015625)"/>
      <path id="DejaVuSans-Bold-43" d="M 4288 256 
Q 3956 84 3597 -3 
Q 3238 -91 2847 -91 
Q 1681 -91 1000 561 
Q 319 1213 319 2328 
Q 319 3447 1000 4098 
Q 1681 4750 2847 4750 
Q 3238 4750 3597 4662 
Q 3956 4575 4288 4403 
L 4288 3438 
Q 3953 3666 3628 3772 
Q 3303 3878 2944 3878 
Q 2300 3878 1931 3465 
Q 1563 3053 1563 2328 
Q 1563 1606 1931 1193 
Q 2300 781 2944 781 
Q 3303 781 3628 887 
Q 3953 994 4288 1222 
L 4288 256 
z
" transform="scale(0.015625)"/>
      <path id="DejaVuSans-Bold-6f" d="M 2203 2784 
Q 1831 2784 1636 2517 
Q 1441 2250 1441 1747 
Q 1441 1244 1636 976 
Q 1831 709 2203 709 
Q 2569 709 2762 976 
Q 2956 1244 2956 1747 
Q 2956 2250 2762 2517 
Q 2569 2784 2203 2784 
z
M 2203 3584 
Q 3106 3584 3614 3096 
Q 4122 2609 4122 1747 
Q 4122 884 3614 396 
Q 3106 -91 2203 -91 
Q 1297 -91 786 396 
Q 275 884 275 1747 
Q 275 2609 786 3096 
Q 1297 3584 2203 3584 
z
" transform="scale(0.015625)"/>
      <path id="DejaVuSans-Bold-6e" d="M 4056 2131 
L 4056 0 
L 2931 0 
L 2931 347 
L 2931 1631 
Q 2931 2084 2911 2256 
Q 2891 2428 2841 2509 
Q 2775 2619 2662 2680 
Q 2550 2741 2406 2741 
Q 2056 2741 1856 2470 
Q 1656 2200 1656 1722 
L 1656 0 
L 538 0 
L 538 3500 
L 1656 3500 
L 1656 2988 
Q 1909 3294 2193 3439 
Q 2478 3584 2822 3584 
Q 3428 3584 3742 3212 
Q 4056 2841 4056 2131 
z
" transform="scale(0.015625)"/>
      <path id="DejaVuSans-Bold-74" d="M 1759 4494 
L 1759 3500 
L 2913 3500 
L 2913 2700 
L 1759 2700 
L 1759 1216 
Q 1759 972 1856 886 
Q 1953 800 2241 800 
L 2816 800 
L 2816 0 
L 1856 0 
Q 1194 0 917 276 
Q 641 553 641 1216 
L 641 2700 
L 84 2700 
L 84 3500 
L 641 3500 
L 641 4494 
L 1759 4494 
z
" transform="scale(0.015625)"/>
      <path id="DejaVuSans-Bold-73" d="M 3272 3391 
L 3272 2541 
Q 2913 2691 2578 2766 
Q 2244 2841 1947 2841 
Q 1628 2841 1473 2761 
Q 1319 2681 1319 2516 
Q 1319 2381 1436 2309 
Q 1553 2238 1856 2203 
L 2053 2175 
Q 2913 2066 3209 1816 
Q 3506 1566 3506 1031 
Q 3506 472 3093 190 
Q 2681 -91 1863 -91 
Q 1516 -91 1145 -36 
Q 775 19 384 128 
L 384 978 
Q 719 816 1070 734 
Q 1422 653 1784 653 
Q 2113 653 2278 743 
Q 2444 834 2444 1013 
Q 2444 1163 2330 1236 
Q 2216 1309 1875 1350 
L 1678 1375 
Q 931 1469 631 1722 
Q 331 1975 331 2491 
Q 331 3047 712 3315 
Q 1094 3584 1881 3584 
Q 2191 3584 2531 3537 
Q 2872 3491 3272 3391 
z
" transform="scale(0.015625)"/>
      <path id="DejaVuSans-Bold-4c" d="M 588 4666 
L 1791 4666 
L 1791 909 
L 3903 909 
L 3903 0 
L 588 0 
L 588 4666 
z
" transform="scale(0.015625)"/>
      <path id="DejaVuSans-Bold-61" d="M 2106 1575 
Q 1756 1575 1579 1456 
Q 1403 1338 1403 1106 
Q 1403 894 1545 773 
Q 1688 653 1941 653 
Q 2256 653 2472 879 
Q 2688 1106 2688 1447 
L 2688 1575 
L 2106 1575 
z
M 3816 1997 
L 3816 0 
L 2688 0 
L 2688 519 
Q 2463 200 2181 54 
Q 1900 -91 1497 -91 
Q 953 -91 614 226 
Q 275 544 275 1050 
Q 275 1666 698 1953 
Q 1122 2241 2028 2241 
L 2688 2241 
L 2688 2328 
Q 2688 2594 2478 2717 
Q 2269 2841 1825 2841 
Q 1466 2841 1156 2769 
Q 847 2697 581 2553 
L 581 3406 
Q 941 3494 1303 3539 
Q 1666 3584 2028 3584 
Q 2975 3584 3395 3211 
Q 3816 2838 3816 1997 
z
" transform="scale(0.015625)"/>
      <path id="DejaVuSans-Bold-64" d="M 2919 2988 
L 2919 4863 
L 4044 4863 
L 4044 0 
L 2919 0 
L 2919 506 
Q 2688 197 2409 53 
Q 2131 -91 1766 -91 
Q 1119 -91 703 423 
Q 288 938 288 1747 
Q 288 2556 703 3070 
Q 1119 3584 1766 3584 
Q 2128 3584 2408 3439 
Q 2688 3294 2919 2988 
z
M 2181 722 
Q 2541 722 2730 984 
Q 2919 1247 2919 1747 
Q 2919 2247 2730 2509 
Q 2541 2772 2181 2772 
Q 1825 2772 1636 2509 
Q 1447 2247 1447 1747 
Q 1447 1247 1636 984 
Q 1825 722 2181 722 
z
" transform="scale(0.015625)"/>
      <path id="DejaVuSans-Bold-4d" d="M 588 4666 
L 2119 4666 
L 3181 2169 
L 4250 4666 
L 5778 4666 
L 5778 0 
L 4641 0 
L 4641 3413 
L 3566 897 
L 2803 897 
L 1728 3413 
L 1728 0 
L 588 0 
L 588 4666 
z
" transform="scale(0.015625)"/>
      <path id="DejaVuSans-Bold-6c" d="M 538 4863 
L 1656 4863 
L 1656 0 
L 538 0 
L 538 4863 
z
" transform="scale(0.015625)"/>
      <path id="DejaVuSans-Bold-52" d="M 2297 2597 
Q 2675 2597 2839 2737 
Q 3003 2878 3003 3200 
Q 3003 3519 2839 3656 
Q 2675 3794 2297 3794 
L 1791 3794 
L 1791 2597 
L 2297 2597 
z
M 1791 1766 
L 1791 0 
L 588 0 
L 588 4666 
L 2425 4666 
Q 3347 4666 3776 4356 
Q 4206 4047 4206 3378 
Q 4206 2916 3982 2619 
Q 3759 2322 3309 2181 
Q 3556 2125 3751 1926 
Q 3947 1728 4147 1325 
L 4800 0 
L 3519 0 
L 2950 1159 
Q 2778 1509 2601 1637 
Q 2425 1766 2131 1766 
L 1791 1766 
z
" transform="scale(0.015625)"/>
      <path id="DejaVuSans-Bold-66" d="M 2841 4863 
L 2841 4128 
L 2222 4128 
Q 1984 4128 1890 4042 
Q 1797 3956 1797 3744 
L 1797 3500 
L 2753 3500 
L 2753 2700 
L 1797 2700 
L 1797 0 
L 678 0 
L 678 2700 
L 122 2700 
L 122 3500 
L 678 3500 
L 678 3744 
Q 678 4316 997 4589 
Q 1316 4863 1984 4863 
L 2841 4863 
z
" transform="scale(0.015625)"/>
      <path id="DejaVuSans-Bold-6d" d="M 3781 2919 
Q 3994 3244 4286 3414 
Q 4578 3584 4928 3584 
Q 5531 3584 5847 3212 
Q 6163 2841 6163 2131 
L 6163 0 
L 5038 0 
L 5038 1825 
Q 5041 1866 5042 1909 
Q 5044 1953 5044 2034 
Q 5044 2406 4934 2573 
Q 4825 2741 4581 2741 
Q 4263 2741 4089 2478 
Q 3916 2216 3909 1719 
L 3909 0 
L 2784 0 
L 2784 1825 
Q 2784 2406 2684 2573 
Q 2584 2741 2328 2741 
Q 2006 2741 1831 2477 
Q 1656 2213 1656 1722 
L 1656 0 
L 531 0 
L 531 3500 
L 1656 3500 
L 1656 2988 
Q 1863 3284 2130 3434 
Q 2397 3584 2719 3584 
Q 3081 3584 3359 3409 
Q 3638 3234 3781 2919 
z
" transform="scale(0.015625)"/>
     </defs>
     <use xlink:href="#DejaVuSans-Bold-46"/>
     <use xlink:href="#DejaVuSans-Bold-69" transform="translate(68.310547 0)"/>
     <use xlink:href="#DejaVuSans-Bold-67" transform="translate(102.587891 0)"/>
     <use xlink:href="#DejaVuSans-Bold-75" transform="translate(174.169922 0)"/>
     <use xlink:href="#DejaVuSans-Bold-72" transform="translate(245.361328 0)"/>
     <use xlink:href="#DejaVuSans-Bold-65" transform="translate(294.677734 0)"/>
     <use xlink:href="#DejaVuSans-Bold-20" transform="translate(362.5 0)"/>
     <use xlink:href="#DejaVuSans-Bold-38" transform="translate(397.314453 0)"/>
     <use xlink:href="#DejaVuSans-Bold-2e" transform="translate(466.894531 0)"/>
     <use xlink:href="#DejaVuSans-Bold-20" transform="translate(504.882812 0)"/>
     <use xlink:href="#DejaVuSans-Bold-43" transform="translate(539.697266 0)"/>
     <use xlink:href="#DejaVuSans-Bold-6f" transform="translate(613.085938 0)"/>
     <use xlink:href="#DejaVuSans-Bold-6e" transform="translate(681.787109 0)"/>
     <use xlink:href="#DejaVuSans-Bold-74" transform="translate(752.978516 0)"/>
     <use xlink:href="#DejaVuSans-Bold-69" transform="translate(800.78125 0)"/>
     <use xlink:href="#DejaVuSans-Bold-6e" transform="translate(835.058594 0)"/>
     <use xlink:href="#DejaVuSans-Bold-75" transform="translate(906.25 0)"/>
     <use xlink:href="#DejaVuSans-Bold-6f" transform="translate(977.441406 0)"/>
     <use xlink:href="#DejaVuSans-Bold-75" transform="translate(1046.142578 0)"/>
     <use xlink:href="#DejaVuSans-Bold-73" transform="translate(1117.333984 0)"/>
     <use xlink:href="#DejaVuSans-Bold-20" transform="translate(1176.855469 0)"/>
     <use xlink:href="#DejaVuSans-Bold-4c" transform="translate(1211.669922 0)"/>
     <use xlink:href="#DejaVuSans-Bold-65" transform="translate(1275.390625 0)"/>
     <use xlink:href="#DejaVuSans-Bold-61" transform="translate(1343.212891 0)"/>
     <use xlink:href="#DejaVuSans-Bold-72" transform="translate(1410.693359 0)"/>
     <use xlink:href="#DejaVuSans-Bold-6e" transform="translate(1460.009766 0)"/>
     <use xlink:href="#DejaVuSans-Bold-69" transform="translate(1531.201172 0)"/>
     <use xlink:href="#DejaVuSans-Bold-6e" transform="translate(1565.478516 0)"/>
     <use xlink:href="#DejaVuSans-Bold-67" transform="translate(1636.669922 0)"/>
     <use xlink:href="#DejaVuSans-Bold-20" transform="translate(1708.251953 0)"/>
     <use xlink:href="#DejaVuSans-Bold-61" transform="translate(1743.066406 0)"/>
     <use xlink:href="#DejaVuSans-Bold-6e" transform="translate(1810.546875 0)"/>
     <use xlink:href="#DejaVuSans-Bold-64" transform="translate(1881.738281 0)"/>
     <use xlink:href="#DejaVuSans-Bold-20" transform="translate(1953.320312 0)"/>
     <use xlink:href="#DejaVuSans-Bold-4d" transform="translate(1988.134766 0)"/>
     <use xlink:href="#DejaVuSans-Bold-6f" transform="translate(2087.646484 0)"/>
     <use xlink:href="#DejaVuSans-Bold-64" transform="translate(2156.347656 0)"/>
     <use xlink:href="#DejaVuSans-Bold-65" transform="translate(2227.929688 0)"/>
     <use xlink:href="#DejaVuSans-Bold-6c" transform="translate(2295.751953 0)"/>
     <use xlink:href="#DejaVuSans-Bold-20" transform="translate(2330.029297 0)"/>
     <use xlink:href="#DejaVuSans-Bold-52" transform="translate(2364.84375 0)"/>
     <use xlink:href="#DejaVuSans-Bold-65" transform="translate(2441.845703 0)"/>
     <use xlink:href="#DejaVuSans-Bold-66" transform="translate(2509.667969 0)"/>
     <use xlink:href="#DejaVuSans-Bold-69" transform="translate(2553.173828 0)"/>
     <use xlink:href="#DejaVuSans-Bold-6e" transform="translate(2587.451172 0)"/>
     <use xlink:href="#DejaVuSans-Bold-65" transform="translate(2658.642578 0)"/>
     <use xlink:href="#DejaVuSans-Bold-6d" transform="translate(2726.464844 0)"/>
     <use xlink:href="#DejaVuSans-Bold-65" transform="translate(2830.664062 0)"/>
     <use xlink:href="#DejaVuSans-Bold-6e" transform="translate(2898.486328 0)"/>
     <use xlink:href="#DejaVuSans-Bold-74" transform="translate(2969.677734 0)"/>
    </g>
   </g>
   <g id="text_2">
    <!-- Generate predictions + rank candidates -->
    <g transform="translate(213.904688 108.033269) scale(0.1 -0.1)">
     <defs>
      <path id="DejaVuSans-47" d="M 3809 666 
L 3809 1919 
L 2778 1919 
L 2778 2438 
L 4434 2438 
L 4434 434 
Q 4069 175 3628 42 
Q 3188 -91 2688 -91 
Q 1594 -91 976 548 
Q 359 1188 359 2328 
Q 359 3472 976 4111 
Q 1594 4750 2688 4750 
Q 3144 4750 3555 4637 
Q 3966 4525 4313 4306 
L 4313 3634 
Q 3963 3931 3569 4081 
Q 3175 4231 2741 4231 
Q 1884 4231 1454 3753 
Q 1025 3275 1025 2328 
Q 1025 1384 1454 906 
Q 1884 428 2741 428 
Q 3075 428 3337 486 
Q 3600 544 3809 666 
z
" transform="scale(0.015625)"/>
      <path id="DejaVuSans-65" d="M 3597 1894 
L 3597 1613 
L 953 1613 
Q 991 1019 1311 708 
Q 1631 397 2203 397 
Q 2534 397 2845 478 
Q 3156 559 3463 722 
L 3463 178 
Q 3153 47 2828 -22 
Q 2503 -91 2169 -91 
Q 1331 -91 842 396 
Q 353 884 353 1716 
Q 353 2575 817 3079 
Q 1281 3584 2069 3584 
Q 2775 3584 3186 3129 
Q 3597 2675 3597 1894 
z
M 3022 2063 
Q 3016 2534 2758 2815 
Q 2500 3097 2075 3097 
Q 1594 3097 1305 2825 
Q 1016 2553 972 2059 
L 3022 2063 
z
" transform="scale(0.015625)"/>
      <path id="DejaVuSans-6e" d="M 3513 2113 
L 3513 0 
L 2938 0 
L 2938 2094 
Q 2938 2591 2744 2837 
Q 2550 3084 2163 3084 
Q 1697 3084 1428 2787 
Q 1159 2491 1159 1978 
L 1159 0 
L 581 0 
L 581 3500 
L 1159 3500 
L 1159 2956 
Q 1366 3272 1645 3428 
Q 1925 3584 2291 3584 
Q 2894 3584 3203 3211 
Q 3513 2838 3513 2113 
z
" transform="scale(0.015625)"/>
      <path id="DejaVuSans-72" d="M 2631 2963 
Q 2534 3019 2420 3045 
Q 2306 3072 2169 3072 
Q 1681 3072 1420 2755 
Q 1159 2438 1159 1844 
L 1159 0 
L 581 0 
L 581 3500 
L 1159 3500 
L 1159 2956 
Q 1341 3275 1631 3429 
Q 1922 3584 2338 3584 
Q 2397 3584 2469 3576 
Q 2541 3569 2628 3553 
L 2631 2963 
z
" transform="scale(0.015625)"/>
      <path id="DejaVuSans-61" d="M 2194 1759 
Q 1497 1759 1228 1600 
Q 959 1441 959 1056 
Q 959 750 1161 570 
Q 1363 391 1709 391 
Q 2188 391 2477 730 
Q 2766 1069 2766 1631 
L 2766 1759 
L 2194 1759 
z
M 3341 1997 
L 3341 0 
L 2766 0 
L 2766 531 
Q 2569 213 2275 61 
Q 1981 -91 1556 -91 
Q 1019 -91 701 211 
Q 384 513 384 1019 
Q 384 1609 779 1909 
Q 1175 2209 1959 2209 
L 2766 2209 
L 2766 2266 
Q 2766 2663 2505 2880 
Q 2244 3097 1772 3097 
Q 1472 3097 1187 3025 
Q 903 2953 641 2809 
L 641 3341 
Q 956 3463 1253 3523 
Q 1550 3584 1831 3584 
Q 2591 3584 2966 3190 
Q 3341 2797 3341 1997 
z
" transform="scale(0.015625)"/>
      <path id="DejaVuSans-74" d="M 1172 4494 
L 1172 3500 
L 2356 3500 
L 2356 3053 
L 1172 3053 
L 1172 1153 
Q 1172 725 1289 603 
Q 1406 481 1766 481 
L 2356 481 
L 2356 0 
L 1766 0 
Q 1100 0 847 248 
Q 594 497 594 1153 
L 594 3053 
L 172 3053 
L 172 3500 
L 594 3500 
L 594 4494 
L 1172 4494 
z
" transform="scale(0.015625)"/>
      <path id="DejaVuSans-20" transform="scale(0.015625)"/>
      <path id="DejaVuSans-70" d="M 1159 525 
L 1159 -1331 
L 581 -1331 
L 581 3500 
L 1159 3500 
L 1159 2969 
Q 1341 3281 1617 3432 
Q 1894 3584 2278 3584 
Q 2916 3584 3314 3078 
Q 3713 2572 3713 1747 
Q 3713 922 3314 415 
Q 2916 -91 2278 -91 
Q 1894 -91 1617 61 
Q 1341 213 1159 525 
z
M 3116 1747 
Q 3116 2381 2855 2742 
Q 2594 3103 2138 3103 
Q 1681 3103 1420 2742 
Q 1159 2381 1159 1747 
Q 1159 1113 1420 752 
Q 1681 391 2138 391 
Q 2594 391 2855 752 
Q 3116 1113 3116 1747 
z
" transform="scale(0.015625)"/>
      <path id="DejaVuSans-64" d="M 2906 2969 
L 2906 4863 
L 3481 4863 
L 3481 0 
L 2906 0 
L 2906 525 
Q 2725 213 2448 61 
Q 2172 -91 1784 -91 
Q 1150 -91 751 415 
Q 353 922 353 1747 
Q 353 2572 751 3078 
Q 1150 3584 1784 3584 
Q 2172 3584 2448 3432 
Q 2725 3281 2906 2969 
z
M 947 1747 
Q 947 1113 1208 752 
Q 1469 391 1925 391 
Q 2381 391 2643 752 
Q 2906 1113 2906 1747 
Q 2906 2381 2643 2742 
Q 2381 3103 1925 3103 
Q 1469 3103 1208 2742 
Q 947 2381 947 1747 
z
" transform="scale(0.015625)"/>
      <path id="DejaVuSans-69" d="M 603 3500 
L 1178 3500 
L 1178 0 
L 603 0 
L 603 3500 
z
M 603 4863 
L 1178 4863 
L 1178 4134 
L 603 4134 
L 603 4863 
z
" transform="scale(0.015625)"/>
      <path id="DejaVuSans-63" d="M 3122 3366 
L 3122 2828 
Q 2878 2963 2633 3030 
Q 2388 3097 2138 3097 
Q 1578 3097 1268 2742 
Q 959 2388 959 1747 
Q 959 1106 1268 751 
Q 1578 397 2138 397 
Q 2388 397 2633 464 
Q 2878 531 3122 666 
L 3122 134 
Q 2881 22 2623 -34 
Q 2366 -91 2075 -91 
Q 1284 -91 818 406 
Q 353 903 353 1747 
Q 353 2603 823 3093 
Q 1294 3584 2113 3584 
Q 2378 3584 2631 3529 
Q 2884 3475 3122 3366 
z
" transform="scale(0.015625)"/>
      <path id="DejaVuSans-6f" d="M 1959 3097 
Q 1497 3097 1228 2736 
Q 959 2375 959 1747 
Q 959 1119 1226 758 
Q 1494 397 1959 397 
Q 2419 397 2687 759 
Q 2956 1122 2956 1747 
Q 2956 2369 2687 2733 
Q 2419 3097 1959 3097 
z
M 1959 3584 
Q 2709 3584 3137 3096 
Q 3566 2609 3566 1747 
Q 3566 888 3137 398 
Q 2709 -91 1959 -91 
Q 1206 -91 779 398 
Q 353 888 353 1747 
Q 353 2609 779 3096 
Q 1206 3584 1959 3584 
z
" transform="scale(0.015625)"/>
      <path id="DejaVuSans-73" d="M 2834 3397 
L 2834 2853 
Q 2591 2978 2328 3040 
Q 2066 3103 1784 3103 
Q 1356 3103 1142 2972 
Q 928 2841 928 2578 
Q 928 2378 1081 2264 
Q 1234 2150 1697 2047 
L 1894 2003 
Q 2506 1872 2764 1633 
Q 3022 1394 3022 966 
Q 3022 478 2636 193 
Q 2250 -91 1575 -91 
Q 1294 -91 989 -36 
Q 684 19 347 128 
L 347 722 
Q 666 556 975 473 
Q 1284 391 1588 391 
Q 1994 391 2212 530 
Q 2431 669 2431 922 
Q 2431 1156 2273 1281 
Q 2116 1406 1581 1522 
L 1381 1569 
Q 847 1681 609 1914 
Q 372 2147 372 2553 
Q 372 3047 722 3315 
Q 1072 3584 1716 3584 
Q 2034 3584 2315 3537 
Q 2597 3491 2834 3397 
z
" transform="scale(0.015625)"/>
      <path id="DejaVuSans-2b" d="M 2944 4013 
L 2944 2272 
L 4684 2272 
L 4684 1741 
L 2944 1741 
L 2944 0 
L 2419 0 
L 2419 1741 
L 678 1741 
L 678 2272 
L 2419 2272 
L 2419 4013 
L 2944 4013 
z
" transform="scale(0.015625)"/>
      <path id="DejaVuSans-6b" d="M 581 4863 
L 1159 4863 
L 1159 1991 
L 2875 3500 
L 3609 3500 
L 1753 1863 
L 3688 0 
L 2938 0 
L 1159 1709 
L 1159 0 
L 581 0 
L 581 4863 
z
" transform="scale(0.015625)"/>
     </defs>
     <use xlink:href="#DejaVuSans-47"/>
     <use xlink:href="#DejaVuSans-65" transform="translate(77.490234 0)"/>
     <use xlink:href="#DejaVuSans-6e" transform="translate(139.013672 0)"/>
     <use xlink:href="#DejaVuSans-65" transform="translate(202.392578 0)"/>
     <use xlink:href="#DejaVuSans-72" transform="translate(263.916016 0)"/>
     <use xlink:href="#DejaVuSans-61" transform="translate(305.029297 0)"/>
     <use xlink:href="#DejaVuSans-74" transform="translate(366.308594 0)"/>
     <use xlink:href="#DejaVuSans-65" transform="translate(405.517578 0)"/>
     <use xlink:href="#DejaVuSans-20" transform="translate(467.041016 0)"/>
     <use xlink:href="#DejaVuSans-70" transform="translate(498.828125 0)"/>
     <use xlink:href="#DejaVuSans-72" transform="translate(562.304688 0)"/>
     <use xlink:href="#DejaVuSans-65" transform="translate(601.167969 0)"/>
     <use xlink:href="#DejaVuSans-64" transform="translate(662.691406 0)"/>
     <use xlink:href="#DejaVuSans-69" transform="translate(726.167969 0)"/>
     <use xlink:href="#DejaVuSans-63" transform="translate(753.951172 0)"/>
     <use xlink:href="#DejaVuSans-74" transform="translate(808.931641 0)"/>
     <use xlink:href="#DejaVuSans-69" transform="translate(848.140625 0)"/>
     <use xlink:href="#DejaVuSans-6f" transform="translate(875.923828 0)"/>
     <use xlink:href="#DejaVuSans-6e" transform="translate(937.105469 0)"/>
     <use xlink:href="#DejaVuSans-73" transform="translate(1000.484375 0)"/>
     <use xlink:href="#DejaVuSans-20" transform="translate(1052.583984 0)"/>
     <use xlink:href="#DejaVuSans-2b" transform="translate(1084.371094 0)"/>
     <use xlink:href="#DejaVuSans-20" transform="translate(1168.160156 0)"/>
     <use xlink:href="#DejaVuSans-72" transform="translate(1199.947266 0)"/>
     <use xlink:href="#DejaVuSans-61" transform="translate(1241.060547 0)"/>
     <use xlink:href="#DejaVuSans-6e" transform="translate(1302.339844 0)"/>
     <use xlink:href="#DejaVuSans-6b" transform="translate(1365.71875 0)"/>
     <use xlink:href="#DejaVuSans-20" transform="translate(1423.628906 0)"/>
     <use xlink:href="#DejaVuSans-63" transform="translate(1455.416016 0)"/>
     <use xlink:href="#DejaVuSans-61" transform="translate(1510.396484 0)"/>
     <use xlink:href="#DejaVuSans-6e" transform="translate(1571.675781 0)"/>
     <use xlink:href="#DejaVuSans-64" transform="translate(1635.054688 0)"/>
     <use xlink:href="#DejaVuSans-69" transform="translate(1698.53125 0)"/>
     <use xlink:href="#DejaVuSans-64" transform="translate(1726.314453 0)"/>
     <use xlink:href="#DejaVuSans-61" transform="translate(1789.791016 0)"/>
     <use xlink:href="#DejaVuSans-74" transform="translate(1851.070312 0)"/>
     <use xlink:href="#DejaVuSans-65" transform="translate(1890.279297 0)"/>
     <use xlink:href="#DejaVuSans-73" transform="translate(1951.802734 0)"/>
    </g>
    <!-- (probability + uncertainty) -->
    <g transform="translate(247.434375 119.231081) scale(0.1 -0.1)">
     <defs>
      <path id="DejaVuSans-28" d="M 1984 4856 
Q 1566 4138 1362 3434 
Q 1159 2731 1159 2009 
Q 1159 1288 1364 580 
Q 1569 -128 1984 -844 
L 1484 -844 
Q 1016 -109 783 600 
Q 550 1309 550 2009 
Q 550 2706 781 3412 
Q 1013 4119 1484 4856 
L 1984 4856 
z
" transform="scale(0.015625)"/>
      <path id="DejaVuSans-62" d="M 3116 1747 
Q 3116 2381 2855 2742 
Q 2594 3103 2138 3103 
Q 1681 3103 1420 2742 
Q 1159 2381 1159 1747 
Q 1159 1113 1420 752 
Q 1681 391 2138 391 
Q 2594 391 2855 752 
Q 3116 1113 3116 1747 
z
M 1159 2969 
Q 1341 3281 1617 3432 
Q 1894 3584 2278 3584 
Q 2916 3584 3314 3078 
Q 3713 2572 3713 1747 
Q 3713 922 3314 415 
Q 2916 -91 2278 -91 
Q 1894 -91 1617 61 
Q 1341 213 1159 525 
L 1159 0 
L 581 0 
L 581 4863 
L 1159 4863 
L 1159 2969 
z
" transform="scale(0.015625)"/>
      <path id="DejaVuSans-6c" d="M 603 4863 
L 1178 4863 
L 1178 0 
L 603 0 
L 603 4863 
z
" transform="scale(0.015625)"/>
      <path id="DejaVuSans-79" d="M 2059 -325 
Q 1816 -950 1584 -1140 
Q 1353 -1331 966 -1331 
L 506 -1331 
L 506 -850 
L 844 -850 
Q 1081 -850 1212 -737 
Q 1344 -625 1503 -206 
L 1606 56 
L 191 3500 
L 800 3500 
L 1894 763 
L 2988 3500 
L 3597 3500 
L 2059 -325 
z
" transform="scale(0.015625)"/>
      <path id="DejaVuSans-75" d="M 544 1381 
L 544 3500 
L 1119 3500 
L 1119 1403 
Q 1119 906 1312 657 
Q 1506 409 1894 409 
Q 2359 409 2629 706 
Q 2900 1003 2900 1516 
L 2900 3500 
L 3475 3500 
L 3475 0 
L 2900 0 
L 2900 538 
Q 2691 219 2414 64 
Q 2138 -91 1772 -91 
Q 1169 -91 856 284 
Q 544 659 544 1381 
z
M 1991 3584 
L 1991 3584 
z
" transform="scale(0.015625)"/>
      <path id="DejaVuSans-29" d="M 513 4856 
L 1013 4856 
Q 1481 4119 1714 3412 
Q 1947 2706 1947 2009 
Q 1947 1309 1714 600 
Q 1481 -109 1013 -844 
L 513 -844 
Q 928 -128 1133 580 
Q 1338 1288 1338 2009 
Q 1338 2731 1133 3434 
Q 928 4138 513 4856 
z
" transform="scale(0.015625)"/>
     </defs>
     <use xlink:href="#DejaVuSans-28"/>
     <use xlink:href="#DejaVuSans-70" transform="translate(39.013672 0)"/>
     <use xlink:href="#DejaVuSans-72" transform="translate(102.490234 0)"/>
     <use xlink:href="#DejaVuSans-6f" transform="translate(141.353516 0)"/>
     <use xlink:href="#DejaVuSans-62" transform="translate(202.535156 0)"/>
     <use xlink:href="#DejaVuSans-61" transform="translate(266.011719 0)"/>
     <use xlink:href="#DejaVuSans-62" transform="translate(327.291016 0)"/>
     <use xlink:href="#DejaVuSans-69" transform="translate(390.767578 0)"/>
     <use xlink:href="#DejaVuSans-6c" transform="translate(418.550781 0)"/>
     <use xlink:href="#DejaVuSans-69" transform="translate(446.333984 0)"/>
     <use xlink:href="#DejaVuSans-74" transform="translate(474.117188 0)"/>
     <use xlink:href="#DejaVuSans-79" transform="translate(513.326172 0)"/>
     <use xlink:href="#DejaVuSans-20" transform="translate(572.505859 0)"/>
     <use xlink:href="#DejaVuSans-2b" transform="translate(604.292969 0)"/>
     <use xlink:href="#DejaVuSans-20" transform="translate(688.082031 0)"/>
     <use xlink:href="#DejaVuSans-75" transform="translate(719.869141 0)"/>
     <use xlink:href="#DejaVuSans-6e" transform="translate(783.248047 0)"/>
     <use xlink:href="#DejaVuSans-63" transform="translate(846.626953 0)"/>
     <use xlink:href="#DejaVuSans-65" transform="translate(901.607422 0)"/>
     <use xlink:href="#DejaVuSans-72" transform="translate(963.130859 0)"/>
     <use xlink:href="#DejaVuSans-74" transform="translate(1004.244141 0)"/>
     <use xlink:href="#DejaVuSans-61" transform="translate(1043.453125 0)"/>
     <use xlink:href="#DejaVuSans-69" transform="translate(1104.732422 0)"/>
     <use xlink:href="#DejaVuSans-6e" transform="translate(1132.515625 0)"/>
     <use xlink:href="#DejaVuSans-74" transform="translate(1195.894531 0)"/>
     <use xlink:href="#DejaVuSans-79" transform="translate(1235.103516 0)"/>
     <use xlink:href="#DejaVuSans-29" transform="translate(1294.283203 0)"/>
    </g>
   </g>
   <g id="text_3">
    <!-- Experimental validation -->
    <g transform="translate(254.550781 202.281269) scale(0.1 -0.1)">
     <defs>
      <path id="DejaVuSans-45" d="M 628 4666 
L 3578 4666 
L 3578 4134 
L 1259 4134 
L 1259 2753 
L 3481 2753 
L 3481 2222 
L 1259 2222 
L 1259 531 
L 3634 531 
L 3634 0 
L 628 0 
L 628 4666 
z
" transform="scale(0.015625)"/>
      <path id="DejaVuSans-78" d="M 3513 3500 
L 2247 1797 
L 3578 0 
L 2900 0 
L 1881 1375 
L 863 0 
L 184 0 
L 1544 1831 
L 300 3500 
L 978 3500 
L 1906 2253 
L 2834 3500 
L 3513 3500 
z
" transform="scale(0.015625)"/>
      <path id="DejaVuSans-6d" d="M 3328 2828 
Q 3544 3216 3844 3400 
Q 4144 3584 4550 3584 
Q 5097 3584 5394 3201 
Q 5691 2819 5691 2113 
L 5691 0 
L 5113 0 
L 5113 2094 
Q 5113 2597 4934 2840 
Q 4756 3084 4391 3084 
Q 3944 3084 3684 2787 
Q 3425 2491 3425 1978 
L 3425 0 
L 2847 0 
L 2847 2094 
Q 2847 2600 2669 2842 
Q 2491 3084 2119 3084 
Q 1678 3084 1418 2786 
Q 1159 2488 1159 1978 
L 1159 0 
L 581 0 
L 581 3500 
L 1159 3500 
L 1159 2956 
Q 1356 3278 1631 3431 
Q 1906 3584 2284 3584 
Q 2666 3584 2933 3390 
Q 3200 3197 3328 2828 
z
" transform="scale(0.015625)"/>
      <path id="DejaVuSans-76" d="M 191 3500 
L 800 3500 
L 1894 563 
L 2988 3500 
L 3597 3500 
L 2284 0 
L 1503 0 
L 191 3500 
z
" transform="scale(0.015625)"/>
     </defs>
     <use xlink:href="#DejaVuSans-45"/>
     <use xlink:href="#DejaVuSans-78" transform="translate(63.183594 0)"/>
     <use xlink:href="#DejaVuSans-70" transform="translate(122.363281 0)"/>
     <use xlink:href="#DejaVuSans-65" transform="translate(185.839844 0)"/>
     <use xlink:href="#DejaVuSans-72" transform="translate(247.363281 0)"/>
     <use xlink:href="#DejaVuSans-69" transform="translate(288.476562 0)"/>
     <use xlink:href="#DejaVuSans-6d" transform="translate(316.259766 0)"/>
     <use xlink:href="#DejaVuSans-65" transform="translate(413.671875 0)"/>
     <use xlink:href="#DejaVuSans-6e" transform="translate(475.195312 0)"/>
     <use xlink:href="#DejaVuSans-74" transform="translate(538.574219 0)"/>
     <use xlink:href="#DejaVuSans-61" transform="translate(577.783203 0)"/>
     <use xlink:href="#DejaVuSans-6c" transform="translate(639.0625 0)"/>
     <use xlink:href="#DejaVuSans-20" transform="translate(666.845703 0)"/>
     <use xlink:href="#DejaVuSans-76" transform="translate(698.632812 0)"/>
     <use xlink:href="#DejaVuSans-61" transform="translate(757.8125 0)"/>
     <use xlink:href="#DejaVuSans-6c" transform="translate(819.091797 0)"/>
     <use xlink:href="#DejaVuSans-69" transform="translate(846.875 0)"/>
     <use xlink:href="#DejaVuSans-64" transform="translate(874.658203 0)"/>
     <use xlink:href="#DejaVuSans-61" transform="translate(938.134766 0)"/>
     <use xlink:href="#DejaVuSans-74" transform="translate(999.414062 0)"/>
     <use xlink:href="#DejaVuSans-69" transform="translate(1038.623047 0)"/>
     <use xlink:href="#DejaVuSans-6f" transform="translate(1066.40625 0)"/>
     <use xlink:href="#DejaVuSans-6e" transform="translate(1127.587891 0)"/>
    </g>
    <!-- (synthesis + characterization) -->
    <g transform="translate(238.696094 213.479081) scale(0.1 -0.1)">
     <defs>
      <path id="DejaVuSans-68" d="M 3513 2113 
L 3513 0 
L 2938 0 
L 2938 2094 
Q 2938 2591 2744 2837 
Q 2550 3084 2163 3084 
Q 1697 3084 1428 2787 
Q 1159 2491 1159 1978 
L 1159 0 
L 581 0 
L 581 4863 
L 1159 4863 
L 1159 2956 
Q 1366 3272 1645 3428 
Q 1925 3584 2291 3584 
Q 2894 3584 3203 3211 
Q 3513 2838 3513 2113 
z
" transform="scale(0.015625)"/>
      <path id="DejaVuSans-7a" d="M 353 3500 
L 3084 3500 
L 3084 2975 
L 922 459 
L 3084 459 
L 3084 0 
L 275 0 
L 275 525 
L 2438 3041 
L 353 3041 
L 353 3500 
z
" transform="scale(0.015625)"/>
     </defs>
     <use xlink:href="#DejaVuSans-28"/>
     <use xlink:href="#DejaVuSans-73" transform="translate(39.013672 0)"/>
     <use xlink:href="#DejaVuSans-79" transform="translate(91.113281 0)"/>
     <use xlink:href="#DejaVuSans-6e" transform="translate(150.292969 0)"/>
     <use xlink:href="#DejaVuSans-74" transform="translate(213.671875 0)"/>
     <use xlink:href="#DejaVuSans-68" transform="translate(252.880859 0)"/>
     <use xlink:href="#DejaVuSans-65" transform="translate(316.259766 0)"/>
     <use xlink:href="#DejaVuSans-73" transform="translate(377.783203 0)"/>
     <use xlink:href="#DejaVuSans-69" transform="translate(429.882812 0)"/>
     <use xlink:href="#DejaVuSans-73" transform="translate(457.666016 0)"/>
     <use xlink:href="#DejaVuSans-20" transform="translate(509.765625 0)"/>
     <use xlink:href="#DejaVuSans-2b" transform="translate(541.552734 0)"/>
     <use xlink:href="#DejaVuSans-20" transform="translate(625.341797 0)"/>
     <use xlink:href="#DejaVuSans-63" transform="translate(657.128906 0)"/>
     <use xlink:href="#DejaVuSans-68" transform="translate(712.109375 0)"/>
     <use xlink:href="#DejaVuSans-61" transform="translate(775.488281 0)"/>
     <use xlink:href="#DejaVuSans-72" transform="translate(836.767578 0)"/>
     <use xlink:href="#DejaVuSans-61" transform="translate(877.880859 0)"/>
     <use xlink:href="#DejaVuSans-63" transform="translate(939.160156 0)"/>
     <use xlink:href="#DejaVuSans-74" transform="translate(994.140625 0)"/>
     <use xlink:href="#DejaVuSans-65" transform="translate(1033.349609 0)"/>
     <use xlink:href="#DejaVuSans-72" transform="translate(1094.873047 0)"/>
     <use xlink:href="#DejaVuSans-69" transform="translate(1135.986328 0)"/>
     <use xlink:href="#DejaVuSans-7a" transform="translate(1163.769531 0)"/>
     <use xlink:href="#DejaVuSans-61" transform="translate(1216.259766 0)"/>
     <use xlink:href="#DejaVuSans-74" transform="translate(1277.539062 0)"/>
     <use xlink:href="#DejaVuSans-69" transform="translate(1316.748047 0)"/>
     <use xlink:href="#DejaVuSans-6f" transform="translate(1344.53125 0)"/>
     <use xlink:href="#DejaVuSans-6e" transform="translate(1405.712891 0)"/>
     <use xlink:href="#DejaVuSans-29" transform="translate(1469.091797 0)"/>
    </g>
   </g>
   <g id="text_4">
    <!-- Validation dataset ingestion -->
    <g transform="translate(244.336719 296.529269) scale(0.1 -0.1)">
     <defs>
      <path id="DejaVuSans-56" d="M 1831 0 
L 50 4666 
L 709 4666 
L 2188 738 
L 3669 4666 
L 4325 4666 
L 2547 0 
L 1831 0 
z
" transform="scale(0.015625)"/>
      <path id="DejaVuSans-67" d="M 2906 1791 
Q 2906 2416 2648 2759 
Q 2391 3103 1925 3103 
Q 1463 3103 1205 2759 
Q 947 2416 947 1791 
Q 947 1169 1205 825 
Q 1463 481 1925 481 
Q 2391 481 2648 825 
Q 2906 1169 2906 1791 
z
M 3481 434 
Q 3481 -459 3084 -895 
Q 2688 -1331 1869 -1331 
Q 1566 -1331 1297 -1286 
Q 1028 -1241 775 -1147 
L 775 -588 
Q 1028 -725 1275 -790 
Q 1522 -856 1778 -856 
Q 2344 -856 2625 -561 
Q 2906 -266 2906 331 
L 2906 616 
Q 2728 306 2450 153 
Q 2172 0 1784 0 
Q 1141 0 747 490 
Q 353 981 353 1791 
Q 353 2603 747 3093 
Q 1141 3584 1784 3584 
Q 2172 3584 2450 3431 
Q 2728 3278 2906 2969 
L 2906 3500 
L 3481 3500 
L 3481 434 
z
" transform="scale(0.015625)"/>
     </defs>
     <use xlink:href="#DejaVuSans-56"/>
     <use xlink:href="#DejaVuSans-61" transform="translate(60.658203 0)"/>
     <use xlink:href="#DejaVuSans-6c" transform="translate(121.9375 0)"/>
     <use xlink:href="#DejaVuSans-69" transform="translate(149.720703 0)"/>
     <use xlink:href="#DejaVuSans-64" transform="translate(177.503906 0)"/>
     <use xlink:href="#DejaVuSans-61" transform="translate(240.980469 0)"/>
     <use xlink:href="#DejaVuSans-74" transform="translate(302.259766 0)"/>
     <use xlink:href="#DejaVuSans-69" transform="translate(341.46875 0)"/>
     <use xlink:href="#DejaVuSans-6f" transform="translate(369.251953 0)"/>
     <use xlink:href="#DejaVuSans-6e" transform="translate(430.433594 0)"/>
     <use xlink:href="#DejaVuSans-20" transform="translate(493.8125 0)"/>
     <use xlink:href="#DejaVuSans-64" transform="translate(525.599609 0)"/>
     <use xlink:href="#DejaVuSans-61" transform="translate(589.076172 0)"/>
     <use xlink:href="#DejaVuSans-74" transform="translate(650.355469 0)"/>
     <use xlink:href="#DejaVuSans-61" transform="translate(689.564453 0)"/>
     <use xlink:href="#DejaVuSans-73" transform="translate(750.84375 0)"/>
     <use xlink:href="#DejaVuSans-65" transform="translate(802.943359 0)"/>
     <use xlink:href="#DejaVuSans-74" transform="translate(864.466797 0)"/>
     <use xlink:href="#DejaVuSans-20" transform="translate(903.675781 0)"/>
     <use xlink:href="#DejaVuSans-69" transform="translate(935.462891 0)"/>
     <use xlink:href="#DejaVuSans-6e" transform="translate(963.246094 0)"/>
     <use xlink:href="#DejaVuSans-67" transform="translate(1026.625 0)"/>
     <use xlink:href="#DejaVuSans-65" transform="translate(1090.101562 0)"/>
     <use xlink:href="#DejaVuSans-73" transform="translate(1151.625 0)"/>
     <use xlink:href="#DejaVuSans-74" transform="translate(1203.724609 0)"/>
     <use xlink:href="#DejaVuSans-69" transform="translate(1242.933594 0)"/>
     <use xlink:href="#DejaVuSans-6f" transform="translate(1270.716797 0)"/>
     <use xlink:href="#DejaVuSans-6e" transform="translate(1331.898438 0)"/>
    </g>
    <!-- (ground truth outcomes) -->
    <g transform="translate(252.470313 307.727081) scale(0.1 -0.1)">
     <use xlink:href="#DejaVuSans-28"/>
     <use xlink:href="#DejaVuSans-67" transform="translate(39.013672 0)"/>
     <use xlink:href="#DejaVuSans-72" transform="translate(102.490234 0)"/>
     <use xlink:href="#DejaVuSans-6f" transform="translate(141.353516 0)"/>
     <use xlink:href="#DejaVuSans-75" transform="translate(202.535156 0)"/>
     <use xlink:href="#DejaVuSans-6e" transform="translate(265.914062 0)"/>
     <use xlink:href="#DejaVuSans-64" transform="translate(329.292969 0)"/>
     <use xlink:href="#DejaVuSans-20" transform="translate(392.769531 0)"/>
     <use xlink:href="#DejaVuSans-74" transform="translate(424.556641 0)"/>
     <use xlink:href="#DejaVuSans-72" transform="translate(463.765625 0)"/>
     <use xlink:href="#DejaVuSans-75" transform="translate(504.878906 0)"/>
     <use xlink:href="#DejaVuSans-74" transform="translate(568.257812 0)"/>
     <use xlink:href="#DejaVuSans-68" transform="translate(607.466797 0)"/>
     <use xlink:href="#DejaVuSans-20" transform="translate(670.845703 0)"/>
     <use xlink:href="#DejaVuSans-6f" transform="translate(702.632812 0)"/>
     <use xlink:href="#DejaVuSans-75" transform="translate(763.814453 0)"/>
     <use xlink:href="#DejaVuSans-74" transform="translate(827.193359 0)"/>
     <use xlink:href="#DejaVuSans-63" transform="translate(866.402344 0)"/>
     <use xlink:href="#DejaVuSans-6f" transform="translate(921.382812 0)"/>
     <use xlink:href="#DejaVuSans-6d" transform="translate(982.564453 0)"/>
     <use xlink:href="#DejaVuSans-65" transform="translate(1079.976562 0)"/>
     <use xlink:href="#DejaVuSans-73" transform="translate(1141.5 0)"/>
     <use xlink:href="#DejaVuSans-29" transform="translate(1193.599609 0)"/>
    </g>
   </g>
   <g id="text_5">
    <!-- Automated retraining trigger -->
    <g transform="translate(241.89375 390.777269) scale(0.1 -0.1)">
     <defs>
      <path id="DejaVuSans-41" d="M 2188 4044 
L 1331 1722 
L 3047 1722 
L 2188 4044 
z
M 1831 4666 
L 2547 4666 
L 4325 0 
L 3669 0 
L 3244 1197 
L 1141 1197 
L 716 0 
L 50 0 
L 1831 4666 
z
" transform="scale(0.015625)"/>
     </defs>
     <use xlink:href="#DejaVuSans-41"/>
     <use xlink:href="#DejaVuSans-75" transform="translate(68.408203 0)"/>
     <use xlink:href="#DejaVuSans-74" transform="translate(131.787109 0)"/>
     <use xlink:href="#DejaVuSans-6f" transform="translate(170.996094 0)"/>
     <use xlink:href="#DejaVuSans-6d" transform="translate(232.177734 0)"/>
     <use xlink:href="#DejaVuSans-61" transform="translate(329.589844 0)"/>
     <use xlink:href="#DejaVuSans-74" transform="translate(390.869141 0)"/>
     <use xlink:href="#DejaVuSans-65" transform="translate(430.078125 0)"/>
     <use xlink:href="#DejaVuSans-64" transform="translate(491.601562 0)"/>
     <use xlink:href="#DejaVuSans-20" transform="translate(555.078125 0)"/>
     <use xlink:href="#DejaVuSans-72" transform="translate(586.865234 0)"/>
     <use xlink:href="#DejaVuSans-65" transform="translate(625.728516 0)"/>
     <use xlink:href="#DejaVuSans-74" transform="translate(687.251953 0)"/>
     <use xlink:href="#DejaVuSans-72" transform="translate(726.460938 0)"/>
     <use xlink:href="#DejaVuSans-61" transform="translate(767.574219 0)"/>
     <use xlink:href="#DejaVuSans-69" transform="translate(828.853516 0)"/>
     <use xlink:href="#DejaVuSans-6e" transform="translate(856.636719 0)"/>
     <use xlink:href="#DejaVuSans-69" transform="translate(920.015625 0)"/>
     <use xlink:href="#DejaVuSans-6e" transform="translate(947.798828 0)"/>
     <use xlink:href="#DejaVuSans-67" transform="translate(1011.177734 0)"/>
     <use xlink:href="#DejaVuSans-20" transform="translate(1074.654297 0)"/>
     <use xlink:href="#DejaVuSans-74" transform="translate(1106.441406 0)"/>
     <use xlink:href="#DejaVuSans-72" transform="translate(1145.650391 0)"/>
     <use xlink:href="#DejaVuSans-69" transform="translate(1186.763672 0)"/>
     <use xlink:href="#DejaVuSans-67" transform="translate(1214.546875 0)"/>
     <use xlink:href="#DejaVuSans-67" transform="translate(1278.023438 0)"/>
     <use xlink:href="#DejaVuSans-65" transform="translate(1341.5 0)"/>
     <use xlink:href="#DejaVuSans-72" transform="translate(1403.023438 0)"/>
    </g>
    <!-- (update models; preserve stability) -->
    <g transform="translate(226.098438 401.975081) scale(0.1 -0.1)">
     <defs>
      <path id="DejaVuSans-3b" d="M 750 3309 
L 1409 3309 
L 1409 2516 
L 750 2516 
L 750 3309 
z
M 750 794 
L 1409 794 
L 1409 256 
L 897 -744 
L 494 -744 
L 750 256 
L 750 794 
z
" transform="scale(0.015625)"/>
     </defs>
     <use xlink:href="#DejaVuSans-28"/>
     <use xlink:href="#DejaVuSans-75" transform="translate(39.013672 0)"/>
     <use xlink:href="#DejaVuSans-70" transform="translate(102.392578 0)"/>
     <use xlink:href="#DejaVuSans-64" transform="translate(165.869141 0)"/>
     <use xlink:href="#DejaVuSans-61" transform="translate(229.345703 0)"/>
     <use xlink:href="#DejaVuSans-74" transform="translate(290.625 0)"/>
     <use xlink:href="#DejaVuSans-65" transform="translate(329.833984 0)"/>
     <use xlink:href="#DejaVuSans-20" transform="translate(391.357422 0)"/>
     <use xlink:href="#DejaVuSans-6d" transform="translate(423.144531 0)"/>
     <use xlink:href="#DejaVuSans-6f" transform="translate(520.556641 0)"/>
     <use xlink:href="#DejaVuSans-64" transform="translate(581.738281 0)"/>
     <use xlink:href="#DejaVuSans-65" transform="translate(645.214844 0)"/>
     <use xlink:href="#DejaVuSans-6c" transform="translate(706.738281 0)"/>
     <use xlink:href="#DejaVuSans-73" transform="translate(734.521484 0)"/>
     <use xlink:href="#DejaVuSans-3b" transform="translate(786.621094 0)"/>
     <use xlink:href="#DejaVuSans-20" transform="translate(820.3125 0)"/>
     <use xlink:href="#DejaVuSans-70" transform="translate(852.099609 0)"/>
     <use xlink:href="#DejaVuSans-72" transform="translate(915.576172 0)"/>
     <use xlink:href="#DejaVuSans-65" transform="translate(954.439453 0)"/>
     <use xlink:href="#DejaVuSans-73" transform="translate(1015.962891 0)"/>
     <use xlink:href="#DejaVuSans-65" transform="translate(1068.0625 0)"/>
     <use xlink:href="#DejaVuSans-72" transform="translate(1129.585938 0)"/>
     <use xlink:href="#DejaVuSans-76" transform="translate(1170.699219 0)"/>
     <use xlink:href="#DejaVuSans-65" transform="translate(1229.878906 0)"/>
     <use xlink:href="#DejaVuSans-20" transform="translate(1291.402344 0)"/>
     <use xlink:href="#DejaVuSans-73" transform="translate(1323.189453 0)"/>
     <use xlink:href="#DejaVuSans-74" transform="translate(1375.289062 0)"/>
     <use xlink:href="#DejaVuSans-61" transform="translate(1414.498047 0)"/>
     <use xlink:href="#DejaVuSans-62" transform="translate(1475.777344 0)"/>
     <use xlink:href="#DejaVuSans-69" transform="translate(1539.253906 0)"/>
     <use xlink:href="#DejaVuSans-6c" transform="translate(1567.037109 0)"/>
     <use xlink:href="#DejaVuSans-69" transform="translate(1594.820312 0)"/>
     <use xlink:href="#DejaVuSans-74" transform="translate(1622.603516 0)"/>
     <use xlink:href="#DejaVuSans-79" transform="translate(1661.8125 0)"/>
     <use xlink:href="#DejaVuSans-29" transform="translate(1720.992188 0)"/>
    </g>
   </g>
   <g id="text_6">
    <!-- Feedback -->
    <g transform="translate(569.340422 264.249844) rotate(-90) scale(0.09 -0.09)">
     <defs>
      <path id="DejaVuSans-46" d="M 628 4666 
L 3309 4666 
L 3309 4134 
L 1259 4134 
L 1259 2759 
L 3109 2759 
L 3109 2228 
L 1259 2228 
L 1259 0 
L 628 0 
L 628 4666 
z
" transform="scale(0.015625)"/>
     </defs>
     <use xlink:href="#DejaVuSans-46"/>
     <use xlink:href="#DejaVuSans-65" transform="translate(52.019531 0)"/>
     <use xlink:href="#DejaVuSans-65" transform="translate(113.542969 0)"/>
     <use xlink:href="#DejaVuSans-64" transform="translate(175.066406 0)"/>
     <use xlink:href="#DejaVuSans-62" transform="translate(238.542969 0)"/>
     <use xlink:href="#DejaVuSans-61" transform="translate(302.019531 0)"/>
     <use xlink:href="#DejaVuSans-63" transform="translate(363.298828 0)"/>
     <use xlink:href="#DejaVuSans-6b" transform="translate(418.279297 0)"/>
    </g>
    <!-- loop -->
    <g transform="translate(579.418453 252.433828) rotate(-90) scale(0.09 -0.09)">
     <use xlink:href="#DejaVuSans-6c"/>
     <use xlink:href="#DejaVuSans-6f" transform="translate(27.783203 0)"/>
     <use xlink:href="#DejaVuSans-6f" transform="translate(88.964844 0)"/>
     <use xlink:href="#DejaVuSans-70" transform="translate(150.146484 0)"/>
    </g>
   </g>
   <g id="text_7">
    <!-- Active learning selects next experiments based on uncertainty / value-of-information -->
    <g transform="translate(122.834531 467.143481) scale(0.09 -0.09)">
     <defs>
      <path id="DejaVuSans-2f" d="M 1625 4666 
L 2156 4666 
L 531 -594 
L 0 -594 
L 1625 4666 
z
" transform="scale(0.015625)"/>
      <path id="DejaVuSans-2d" d="M 313 2009 
L 1997 2009 
L 1997 1497 
L 313 1497 
L 313 2009 
z
" transform="scale(0.015625)"/>
      <path id="DejaVuSans-66" d="M 2375 4863 
L 2375 4384 
L 1825 4384 
Q 1516 4384 1395 4259 
Q 1275 4134 1275 3809 
L 1275 3500 
L 2222 3500 
L 2222 3053 
L 1275 3053 
L 1275 0 
L 697 0 
L 697 3053 
L 147 3053 
L 147 3500 
L 697 3500 
L 697 3744 
Q 697 4328 969 4595 
Q 1241 4863 1831 4863 
L 2375 4863 
z
" transform="scale(0.015625)"/>
     </defs>
     <use xlink:href="#DejaVuSans-41"/>
     <use xlink:href="#DejaVuSans-63" transform="translate(66.658203 0)"/>
     <use xlink:href="#DejaVuSans-74" transform="translate(121.638672 0)"/>
     <use xlink:href="#DejaVuSans-69" transform="translate(160.847656 0)"/>
     <use xlink:href="#DejaVuSans-76" transform="translate(188.630859 0)"/>
     <use xlink:href="#DejaVuSans-65" transform="translate(247.810547 0)"/>
     <use xlink:href="#DejaVuSans-20" transform="translate(309.333984 0)"/>
     <use xlink:href="#DejaVuSans-6c" transform="translate(341.121094 0)"/>
     <use xlink:href="#DejaVuSans-65" transform="translate(368.904297 0)"/>
     <use xlink:href="#DejaVuSans-61" transform="translate(430.427734 0)"/>
     <use xlink:href="#DejaVuSans-72" transform="translate(491.707031 0)"/>
     <use xlink:href="#DejaVuSans-6e" transform="translate(531.070312 0)"/>
     <use xlink:href="#DejaVuSans-69" transform="translate(594.449219 0)"/>
     <use xlink:href="#DejaVuSans-6e" transform="translate(622.232422 0)"/>
     <use xlink:href="#DejaVuSans-67" transform="translate(685.611328 0)"/>
     <use xlink:href="#DejaVuSans-20" transform="translate(749.087891 0)"/>
     <use xlink:href="#DejaVuSans-73" transform="translate(780.875 0)"/>
     <use xlink:href="#DejaVuSans-65" transform="translate(832.974609 0)"/>
     <use xlink:href="#DejaVuSans-6c" transform="translate(894.498047 0)"/>
     <use xlink:href="#DejaVuSans-65" transform="translate(922.28125 0)"/>
     <use xlink:href="#DejaVuSans-63" transform="translate(983.804688 0)"/>
     <use xlink:href="#DejaVuSans-74" transform="translate(1038.785156 0)"/>
     <use xlink:href="#DejaVuSans-73" transform="translate(1077.994141 0)"/>
     <use xlink:href="#DejaVuSans-20" transform="translate(1130.09375 0)"/>
     <use xlink:href="#DejaVuSans-6e" transform="translate(1161.880859 0)"/>
     <use xlink:href="#DejaVuSans-65" transform="translate(1225.259766 0)"/>
     <use xlink:href="#DejaVuSans-78" transform="translate(1285.033203 0)"/>
     <use xlink:href="#DejaVuSans-74" transform="translate(1344.212891 0)"/>
     <use xlink:href="#DejaVuSans-20" transform="translate(1383.421875 0)"/>
     <use xlink:href="#DejaVuSans-65" transform="translate(1415.208984 0)"/>
     <use xlink:href="#DejaVuSans-78" transform="translate(1474.982422 0)"/>
     <use xlink:href="#DejaVuSans-70" transform="translate(1534.162109 0)"/>
     <use xlink:href="#DejaVuSans-65" transform="translate(1597.638672 0)"/>
     <use xlink:href="#DejaVuSans-72" transform="translate(1659.162109 0)"/>
     <use xlink:href="#DejaVuSans-69" transform="translate(1700.275391 0)"/>
     <use xlink:href="#DejaVuSans-6d" transform="translate(1728.058594 0)"/>
     <use xlink:href="#DejaVuSans-65" transform="translate(1825.470703 0)"/>
     <use xlink:href="#DejaVuSans-6e" transform="translate(1886.994141 0)"/>
     <use xlink:href="#DejaVuSans-74" transform="translate(1950.373047 0)"/>
     <use xlink:href="#DejaVuSans-73" transform="translate(1989.582031 0)"/>
     <use xlink:href="#DejaVuSans-20" transform="translate(2041.681641 0)"/>
     <use xlink:href="#DejaVuSans-62" transform="translate(2073.46875 0)"/>
     <use xlink:href="#DejaVuSans-61" transform="translate(2136.945312 0)"/>
     <use xlink:href="#DejaVuSans-73" transform="translate(2198.224609 0)"/>
     <use xlink:href="#DejaVuSans-65" transform="translate(2250.324219 0)"/>
     <use xlink:href="#DejaVuSans-64" transform="translate(2311.847656 0)"/>
     <use xlink:href="#DejaVuSans-20" transform="translate(2375.324219 0)"/>
     <use xlink:href="#DejaVuSans-6f" transform="translate(2407.111328 0)"/>
     <use xlink:href="#DejaVuSans-6e" transform="translate(2468.292969 0)"/>
     <use xlink:href="#DejaVuSans-20" transform="translate(2531.671875 0)"/>
     <use xlink:href="#DejaVuSans-75" transform="translate(2563.458984 0)"/>
     <use xlink:href="#DejaVuSans-6e" transform="translate(2626.837891 0)"/>
     <use xlink:href="#DejaVuSans-63" transform="translate(2690.216797 0)"/>
     <use xlink:href="#DejaVuSans-65" transform="translate(2745.197266 0)"/>
     <use xlink:href="#DejaVuSans-72" transform="translate(2806.720703 0)"/>
     <use xlink:href="#DejaVuSans-74" transform="translate(2847.833984 0)"/>
     <use xlink:href="#DejaVuSans-61" transform="translate(2887.042969 0)"/>
     <use xlink:href="#DejaVuSans-69" transform="translate(2948.322266 0)"/>
     <use xlink:href="#DejaVuSans-6e" transform="translate(2976.105469 0)"/>
     <use xlink:href="#DejaVuSans-74" transform="translate(3039.484375 0)"/>
     <use xlink:href="#DejaVuSans-79" transform="translate(3078.693359 0)"/>
     <use xlink:href="#DejaVuSans-20" transform="translate(3137.873047 0)"/>
     <use xlink:href="#DejaVuSans-2f" transform="translate(3169.660156 0)"/>
     <use xlink:href="#DejaVuSans-20" transform="translate(3203.351562 0)"/>
     <use xlink:href="#DejaVuSans-76" transform="translate(3235.138672 0)"/>
     <use xlink:href="#DejaVuSans-61" transform="translate(3294.318359 0)"/>
     <use xlink:href="#DejaVuSans-6c" transform="translate(3355.597656 0)"/>
     <use xlink:href="#DejaVuSans-75" transform="translate(3383.380859 0)"/>
     <use xlink:href="#DejaVuSans-65" transform="translate(3446.759766 0)"/>
     <use xlink:href="#DejaVuSans-2d" transform="translate(3508.283203 0)"/>
     <use xlink:href="#DejaVuSans-6f" transform="translate(3546.242188 0)"/>
     <use xlink:href="#DejaVuSans-66" transform="translate(3607.423828 0)"/>
     <use xlink:href="#DejaVuSans-2d" transform="translate(3637.128906 0)"/>
     <use xlink:href="#DejaVuSans-69" transform="translate(3673.212891 0)"/>
     <use xlink:href="#DejaVuSans-6e" transform="translate(3700.996094 0)"/>
     <use xlink:href="#DejaVuSans-66" transform="translate(3764.375 0)"/>
     <use xlink:href="#DejaVuSans-6f" transform="translate(3799.580078 0)"/>
     <use xlink:href="#DejaVuSans-72" transform="translate(3860.761719 0)"/>
     <use xlink:href="#DejaVuSans-6d" transform="translate(3900.125 0)"/>
     <use xlink:href="#DejaVuSans-61" transform="translate(3997.537109 0)"/>
     <use xlink:href="#DejaVuSans-74" transform="translate(4058.816406 0)"/>
     <use xlink:href="#DejaVuSans-69" transform="translate(4098.025391 0)"/>
     <use xlink:href="#DejaVuSans-6f" transform="translate(4125.808594 0)"/>
     <use xlink:href="#DejaVuSans-6e" transform="translate(4186.990234 0)"/>
    </g>
   </g>
  </g>
 </g>
 <defs>
  <clipPath id="p247a24ce54">
   <rect x="7.2" y="7.2" width="613.8" height="471.24"/>
  </clipPath>
 </defs>
</svg>
